<svg width="28" height="28" viewBox="0 0 28 28" fill="none" xmlns="http://www.w3.org/2000/svg">
<rect width="28" height="28" rx="14" fill="white"/>
<path d="M9 17.75C8.82292 17.75 8.67459 17.69 8.555 17.57C8.43542 17.45 8.37542 17.3017 8.375 17.125C8.37459 16.9483 8.43459 16.8 8.555 16.68C8.67542 16.56 8.82375 16.5 9 16.5H19C19.1771 16.5 19.3256 16.56 19.4456 16.68C19.5656 16.8 19.6254 16.9483 19.625 17.125C19.6246 17.3017 19.5646 17.4502 19.445 17.5706C19.3254 17.691 19.1771 17.7508 19 17.75H9ZM9 14.625C8.82292 14.625 8.67459 14.565 8.555 14.445C8.43542 14.325 8.37542 14.1767 8.375 14C8.37459 13.8233 8.43459 13.675 8.555 13.555C8.67542 13.435 8.82375 13.375 9 13.375H19C19.1771 13.375 19.3256 13.435 19.4456 13.555C19.5656 13.675 19.6254 13.8233 19.625 14C19.6246 14.1767 19.5646 14.3252 19.445 14.4456C19.3254 14.566 19.1771 14.6258 19 14.625H9ZM9 11.5C8.82292 11.5 8.67459 11.44 8.555 11.32C8.43542 11.2 8.37542 11.0517 8.375 10.875C8.37459 10.6983 8.43459 10.55 8.555 10.43C8.67542 10.31 8.82375 10.25 9 10.25H19C19.1771 10.25 19.3256 10.31 19.4456 10.43C19.5656 10.55 19.6254 10.6983 19.625 10.875C19.6246 11.0517 19.5646 11.2002 19.445 11.3206C19.3254 11.441 19.1771 11.5008 19 11.5H9Z" fill="#EE3424"/>
</svg>
