<svg width="24" height="18" viewBox="0 0 24 18" fill="none" xmlns="http://www.w3.org/2000/svg">
<mask id="mask0_16_34489" style="mask-type:alpha" maskUnits="userSpaceOnUse" x="0" y="0" width="24" height="18">
<g clip-path="url(#clip0_16_34489)">
<g clip-path="url(#clip1_16_34489)">
<path d="M19.8716 6.32883C20.75 6.89189 21.6059 7.25225 22.2365 7.47748C22.5518 7.59009 22.8221 7.65766 22.9797 7.7027C23.0698 7.72523 23.1374 7.74775 23.1824 7.74775C23.1824 7.74775 23.1824 7.74775 23.205 7.74775H23.25C23.25 7.74775 23.25 7.74775 23.25 7.79279L23.2275 9.36937H23.0923C23.0473 9.36937 23.0023 9.39189 22.9347 9.39189C22.7545 9.41441 22.4842 9.48198 22.1689 9.57207C21.5158 9.75225 20.6374 10.045 19.7365 10.5631C17.9347 11.5766 15.9977 13.3559 15.4122 16.6216L13.8131 16.3288C14.4887 12.6802 16.5833 10.5631 18.6104 9.34685L0.772522 9.18919L0.795046 7.56757L19.0608 7.72522C19.0383 7.72522 19.0383 7.7027 19.0158 7.7027C16.9887 6.37387 14.8266 4.07658 14.3761 0.18018L15.9752 0C16.3581 3.28829 18.1599 5.2027 19.8716 6.32883Z" fill="black"/>
</g>
</g>
</mask>
<g mask="url(#mask0_16_34489)">
<rect width="22.5" height="18" transform="matrix(-1 0 0 1 23.25 0)" fill="white"/>
</g>
<defs>
<clipPath id="clip0_16_34489">
<rect width="22.5" height="18" fill="white" transform="matrix(-1 0 0 1 23.25 0)"/>
</clipPath>
<clipPath id="clip1_16_34489">
<rect width="22.5" height="16.6216" fill="white" transform="matrix(-1 0 0 1 23.25 0)"/>
</clipPath>
</defs>
</svg>
