<svg width="24" height="18" viewBox="0 0 24 18" fill="none" xmlns="http://www.w3.org/2000/svg">
<mask id="mask0_16_34482" style="mask-type:alpha" maskUnits="userSpaceOnUse" x="0" y="0" width="24" height="18">
<g clip-path="url(#clip0_16_34482)">
<g clip-path="url(#clip1_16_34482)">
<path d="M4.12838 6.32883C3.25 6.89189 2.39414 7.25225 1.76351 7.47748C1.4482 7.59009 1.17793 7.65766 1.02027 7.7027C0.93018 7.72523 0.862613 7.74775 0.817568 7.74775C0.817568 7.74775 0.817568 7.74775 0.795045 7.74775H0.75C0.75 7.74775 0.75 7.74775 0.75 7.79279L0.772523 9.36937H0.907658C0.952703 9.36937 0.997748 9.39189 1.06532 9.39189C1.2455 9.41441 1.51577 9.48198 1.83108 9.57207C2.48423 9.75225 3.36261 10.045 4.26351 10.5631C6.06532 11.5766 8.00225 13.3559 8.58784 16.6216L10.1869 16.3288C9.51126 12.6802 7.41667 10.5631 5.38964 9.34685L23.2275 9.18919L23.205 7.56757L4.93919 7.72522C4.96171 7.72522 4.96171 7.7027 4.98423 7.7027C7.01126 6.37387 9.17342 4.07658 9.62387 0.18018L8.02477 0C7.64189 3.28829 5.84009 5.2027 4.12838 6.32883Z" fill="black"/>
</g>
</g>
</mask>
<g mask="url(#mask0_16_34482)">
<rect x="0.75" width="22.5" height="18" fill="white"/>
</g>
<defs>
<clipPath id="clip0_16_34482">
<rect width="22.5" height="18" fill="white" transform="translate(0.75)"/>
</clipPath>
<clipPath id="clip1_16_34482">
<rect width="22.5" height="16.6216" fill="white" transform="translate(0.75)"/>
</clipPath>
</defs>
</svg>
