<svg width="20" height="20" viewBox="0 0 20 20" fill="none" xmlns="http://www.w3.org/2000/svg">
<g clip-path="url(#clip0_16_34405)">
<path d="M5.10573 2.52436C5.10961 3.01833 4.9189 3.49399 4.57484 3.84847C4.23079 4.20295 3.76104 4.40777 3.26716 4.41864C2.77432 4.40074 2.3072 4.19416 1.96236 3.8416C1.61751 3.48905 1.42131 3.01747 1.41431 2.52436C1.43561 2.04379 1.63893 1.58933 1.98304 1.25319C2.32714 0.917044 2.78623 0.724404 3.26716 0.714355C3.74668 0.724596 4.20414 0.917719 4.54593 1.2542C4.88772 1.59068 5.08799 2.04506 5.10573 2.52436ZM1.61288 7.78436C1.61288 6.69578 2.30574 6.86578 3.26716 6.86578C4.22859 6.86578 4.90716 6.69578 4.90716 7.78436V18.3901C4.90716 19.4929 4.21431 19.2672 3.26716 19.2672C2.32002 19.2672 1.61288 19.4929 1.61288 18.3901V7.78436ZM7.76431 7.78578C7.76431 7.17721 7.99002 6.95007 8.34288 6.88007C8.69574 6.81007 9.91288 6.88007 10.3372 6.88007C10.7614 6.88007 10.9314 7.57293 10.9172 8.09578C11.2805 7.60935 11.7623 7.22401 12.3167 6.97645C12.8711 6.72889 13.4796 6.62735 14.0843 6.6815C14.6782 6.64524 15.2731 6.7343 15.8304 6.94292C16.3877 7.15153 16.8948 7.47503 17.3189 7.8924C17.743 8.30977 18.0746 8.81167 18.2921 9.36552C18.5096 9.91937 18.6082 10.5128 18.5814 11.1072V18.3472C18.5814 19.4501 17.9029 19.2244 16.94 19.2244C15.9786 19.2244 15.3 19.4501 15.3 18.3472V12.6915C15.3249 12.4005 15.2869 12.1075 15.1885 11.8324C15.0902 11.5574 14.9338 11.3067 14.73 11.0975C14.5261 10.8882 14.2797 10.7253 14.0073 10.6198C13.7349 10.5142 13.443 10.4685 13.1514 10.4858C12.861 10.4781 12.5722 10.5323 12.3043 10.6447C12.0363 10.7572 11.7954 10.9253 11.5973 11.1379C11.3993 11.3505 11.2487 11.6028 11.1556 11.878C11.0625 12.1533 11.0289 12.4452 11.0572 12.7344V18.3901C11.0572 19.4929 10.3643 19.2672 9.40288 19.2672C8.44145 19.2672 7.76288 19.4929 7.76288 18.3901V7.78436L7.76431 7.78578Z" stroke="#EE3424" stroke-linecap="round" stroke-linejoin="round"/>
</g>
<defs>
<clipPath id="clip0_16_34405">
<rect width="20" height="20" fill="white"/>
</clipPath>
</defs>
</svg>
