<svg width="17" height="18" viewBox="0 0 17 18" fill="none" xmlns="http://www.w3.org/2000/svg">
<path d="M8.68188 0.738281C11.5467 0.738281 13.8674 3.05903 13.8674 5.92383C13.8674 7.59208 13.0778 9.07495 11.8528 10.0225C12.7292 10.4123 13.5272 10.9591 14.2053 11.6387C14.9191 12.3498 15.4882 13.1928 15.8801 14.1211C16.2664 15.0329 16.4716 15.9987 16.4924 16.9912C16.4933 17.0264 16.4877 17.0619 16.4749 17.0947C16.462 17.1274 16.4428 17.1574 16.4182 17.1826C16.3936 17.2078 16.3638 17.2275 16.3313 17.2412C16.2988 17.2549 16.264 17.2617 16.2288 17.2617H14.9983C14.8542 17.2617 14.7382 17.1495 14.7346 17.0049C14.6943 15.4473 14.0688 13.9885 12.9631 12.8828C11.8191 11.7388 10.3 11.1094 8.68188 11.1094C7.06372 11.1094 5.54466 11.7388 4.40063 12.8828C3.29492 13.9885 2.6695 15.4473 2.62915 17.0049C2.62563 17.1467 2.51042 17.2617 2.36548 17.2617H1.13501C1.0998 17.2617 1.06492 17.2549 1.03247 17.2412C1.00003 17.2275 0.970144 17.2078 0.945557 17.1826C0.921029 17.1574 0.901768 17.1274 0.888916 17.0947C0.87604 17.0619 0.870457 17.0264 0.871338 16.9912C0.89051 16.0048 1.09807 15.0312 1.48364 14.123C1.87626 13.1952 2.44531 12.3523 3.15845 11.6406C3.84118 10.9559 4.63199 10.4138 5.51001 10.0244C4.28544 9.07507 3.49634 7.59185 3.49634 5.92383C3.49634 3.05905 5.81711 0.738309 8.68188 0.738281ZM8.68188 2.49609C7.76715 2.49611 6.90679 2.85322 6.25903 3.50098C5.61128 4.14874 5.25415 5.00908 5.25415 5.92383C5.25415 6.83857 5.61128 7.69891 6.25903 8.34668C6.90679 8.99444 7.76715 9.35155 8.68188 9.35156C9.59663 9.35156 10.457 8.99443 11.1047 8.34668C11.7525 7.69891 12.1096 6.83859 12.1096 5.92383C12.1096 5.00907 11.7525 4.14875 11.1047 3.50098C10.457 2.85322 9.59663 2.49609 8.68188 2.49609Z" fill="#EE3424" stroke="#EE3424" stroke-width="0.2"/>
</svg>
