<svg width="17" height="18" viewBox="0 0 17 18" fill="none" xmlns="http://www.w3.org/2000/svg">
<path fill-rule="evenodd" clip-rule="evenodd" d="M3.34192 2.6902C4.21033 1.77574 5.64683 1.94645 6.36508 2.9622L7.25758 4.22586C7.83204 5.03832 7.78388 6.1667 7.09821 6.8892L6.92467 7.07124L6.92325 7.07549C6.91404 7.10099 6.89138 7.18316 6.91404 7.33899C6.9615 7.66128 7.21013 8.3172 8.22163 9.38182C9.23596 10.45 9.85079 10.7014 10.1363 10.7482C10.205 10.7638 10.2766 10.7621 10.3445 10.7432L10.6335 10.4387C11.2526 9.78699 12.2173 9.65878 12.9958 10.1064L14.3487 10.8856C15.5054 11.5514 15.7746 13.1799 14.8502 14.1532L13.8444 15.2121C13.5306 15.5429 13.102 15.8255 12.5729 15.8779C11.2809 16.0054 8.28821 15.839 5.151 12.5353C2.22275 9.45336 1.66671 6.77232 1.59658 5.46261C1.56188 4.8152 1.85017 4.26057 2.22983 3.86036L3.34192 2.6902ZM5.49738 3.57561C5.13471 3.06278 4.48233 3.03161 4.11188 3.42191L2.99979 4.59207C2.76604 4.83999 2.64208 5.12332 2.65767 5.40595C2.71433 6.47553 3.17546 8.91361 5.92096 11.8036C8.79963 14.8353 11.4523 14.9203 12.4688 14.8204C12.6693 14.8006 12.8761 14.6887 13.0737 14.4804L14.0795 13.4214C14.5145 12.9639 14.4004 12.1408 13.8189 11.8064L12.466 11.0273C12.1026 10.8183 11.6769 10.8828 11.4042 11.1704L11.0812 11.5104L10.7079 11.1555C11.0812 11.5097 11.0812 11.5104 11.0805 11.5111L11.0798 11.5118L11.0776 11.5146L11.0727 11.5189L11.0628 11.5288C11.033 11.558 11.0008 11.5846 10.9664 11.6081C10.9098 11.6478 10.8347 11.6924 10.739 11.7299C10.5435 11.8072 10.2857 11.8482 9.96625 11.7965C9.34433 11.6959 8.52975 11.249 7.45167 10.1135C6.36933 8.97453 5.95496 8.12524 5.86288 7.4927C5.81542 7.17111 5.85296 6.91399 5.92238 6.7192C5.961 6.61069 6.01593 6.50869 6.08529 6.41674L6.10654 6.39053L6.11646 6.37991L6.12071 6.37495L6.12283 6.37282L6.12425 6.37211C6.12425 6.37211 6.12425 6.3707 6.50179 6.72841L6.12496 6.3707L6.32825 6.15678C6.64346 5.82457 6.6895 5.26216 6.39058 4.83928L5.49738 3.57561Z" fill="white"/>
<path d="M9.39254 1.83171C9.40373 1.76282 9.42838 1.69681 9.46509 1.63745C9.5018 1.57809 9.54985 1.52655 9.60649 1.48576C9.66312 1.44498 9.72724 1.41575 9.79518 1.39976C9.86311 1.38376 9.93354 1.38131 10.0024 1.39254C10.0201 1.39609 10.0782 1.40671 10.1087 1.41379C10.1696 1.42654 10.2527 1.44779 10.358 1.47754C10.5684 1.53917 10.8623 1.64046 11.2151 1.80196C11.9206 2.12567 12.8591 2.69163 13.8338 3.66559C14.8085 4.64025 15.3744 5.5795 15.6981 6.285C15.8596 6.63775 15.9602 6.931 16.0218 7.14209C16.0527 7.2482 16.0794 7.35548 16.1019 7.46367L16.1054 7.48563C16.1287 7.6259 16.096 7.76972 16.0142 7.88607C15.9325 8.00242 15.8083 8.08196 15.6684 8.10754C15.5297 8.13006 15.3877 8.09672 15.2735 8.01481C15.1594 7.93291 15.0823 7.8091 15.0592 7.6705C15.0444 7.59228 15.0253 7.51495 15.0018 7.43888C14.9294 7.19562 14.8395 6.95794 14.7327 6.72771C14.4564 6.12563 13.9592 5.29405 13.0823 4.41713C12.2053 3.54021 11.3745 3.04367 10.7717 2.76742C10.5417 2.66063 10.3042 2.57067 10.0612 2.49825C9.98666 2.47732 9.91155 2.45842 9.83596 2.44159C9.69691 2.41825 9.57256 2.34129 9.48964 2.22725C9.40673 2.11321 9.37186 1.97119 9.39254 1.83171Z" fill="white"/>
<path fill-rule="evenodd" clip-rule="evenodd" d="M9.55264 4.27538C9.57173 4.20826 9.60387 4.14556 9.64721 4.09086C9.69055 4.03616 9.74424 3.99054 9.80522 3.95659C9.8662 3.92265 9.93327 3.90106 10.0026 3.89304C10.0719 3.88503 10.1421 3.89075 10.2093 3.90988L10.0633 4.42059L10.21 3.91059H10.2114L10.2142 3.9113L10.2192 3.91272L10.2333 3.91768C10.2442 3.92051 10.2577 3.925 10.2737 3.93113C10.3054 3.942 10.3471 3.95852 10.3991 3.98072C10.5018 4.02463 10.6428 4.09263 10.8163 4.19534C11.1634 4.40076 11.6358 4.74076 12.1919 5.29751C12.7479 5.85355 13.0893 6.32672 13.2941 6.67309C13.3968 6.84663 13.4648 6.98759 13.5094 7.09101C13.5327 7.14513 13.5537 7.20019 13.5724 7.25605L13.5767 7.27022L13.5781 7.27588L13.5788 7.27801V7.27943L13.0688 7.42605L13.5795 7.28013C13.6191 7.41539 13.6034 7.56086 13.5358 7.68453C13.4682 7.80821 13.3542 7.89995 13.219 7.93959C13.0837 7.97923 12.9382 7.96352 12.8146 7.8959C12.6909 7.82829 12.5991 7.71431 12.5595 7.57905L12.5574 7.57197L12.5326 7.50963C12.4874 7.40826 12.4363 7.30964 12.3796 7.21426C12.2216 6.94793 11.9369 6.54418 11.4411 6.04834C10.9452 5.55251 10.5415 5.26776 10.2751 5.1098C10.1604 5.04247 10.0411 4.98329 9.91814 4.93272L9.91105 4.92988C9.77712 4.8898 9.66438 4.79854 9.59728 4.67589C9.53019 4.55324 9.51415 4.40979 9.55264 4.27538Z" fill="white"/>
</svg>
