<svg width="16" height="18" viewBox="0 0 16 18" fill="none" xmlns="http://www.w3.org/2000/svg">
<path d="M7.68188 0.697266C9.82071 0.697266 11.5549 2.43149 11.5549 4.57031V4.79883H14.2444C14.6626 4.79883 15.0002 5.13647 15.0002 5.55469V16.5469C15.0002 16.9651 14.6626 17.3027 14.2444 17.3027H1.11938C0.701168 17.3027 0.363525 16.9651 0.363525 16.5469V5.55469C0.363525 5.13647 0.701168 4.79883 1.11938 4.79883H3.80884V4.57031C3.80884 2.43149 5.54306 0.697266 7.68188 0.697266ZM2.03931 15.627H13.3245V6.47461H11.5549V8.17969C11.5549 8.32515 11.4367 8.44336 11.2913 8.44336H10.1428C9.99736 8.44336 9.87915 8.32515 9.87915 8.17969V6.47461H5.48462V8.17969C5.48462 8.32515 5.36641 8.44336 5.22095 8.44336H4.07251C3.92705 8.44336 3.80884 8.32515 3.80884 8.17969V6.47461H2.03931V15.627ZM7.68188 2.37305C6.46768 2.37305 5.48462 3.35611 5.48462 4.57031V4.79883H9.87915V4.57031C9.87915 3.35611 8.89609 2.37305 7.68188 2.37305Z" fill="#EE3424" stroke="#EE3424" stroke-width="0.2"/>
</svg>
