<svg width="22" height="22" viewBox="0 0 22 22" fill="none" xmlns="http://www.w3.org/2000/svg">
<path d="M9.52054 3.48755C8.26441 3.48755 7.03649 3.86003 5.99205 4.5579C4.94762 5.25577 4.13358 6.24768 3.65289 7.40819C3.17219 8.5687 3.04641 9.84569 3.29147 11.0777C3.53653 12.3097 4.14141 13.4413 5.02963 14.3296C5.91785 15.2178 7.04951 15.8227 8.2815 16.0677C9.51349 16.3128 10.7905 16.187 11.951 15.7063C13.1115 15.2256 14.1034 14.4116 14.8013 13.3671C15.4992 12.3227 15.8716 11.0948 15.8716 9.83865C15.8715 8.15427 15.2024 6.5389 14.0113 5.34786C12.8203 4.15682 11.2049 3.48766 9.52054 3.48755Z" stroke="#EE3424" stroke-width="1.7" stroke-miterlimit="10"/>
<path d="M14.2589 14.577L18.6945 19.0126" stroke="#EE3424" stroke-width="1.7" stroke-miterlimit="10" stroke-linecap="round"/>
</svg>
