<svg width="21" height="22" viewBox="0 0 21 22" fill="none" xmlns="http://www.w3.org/2000/svg">
<path d="M7.64373 19.7821V16.7152C7.64372 15.9381 8.27567 15.3067 9.05844 15.3018H11.9326C12.7189 15.3018 13.3563 15.9346 13.3563 16.7152V19.7732C13.3563 20.4473 13.904 20.9951 14.5829 21H16.5438C17.4596 21.0023 18.3388 20.6428 18.9872 20.0007C19.6356 19.3586 20 18.4868 20 17.5775V8.86585C20 8.13139 19.6721 7.43471 19.1046 6.9635L12.443 1.67427C11.2785 0.749123 9.61537 0.779008 8.48539 1.74538L1.96701 6.9635C1.37274 7.42082 1.01755 8.11956 1 8.86585V17.5686C1 19.4637 2.54738 21 4.45617 21H6.37229C6.69917 21.0023 7.01349 20.8751 7.24547 20.6464C7.47746 20.4178 7.60793 20.1067 7.60792 19.7821H7.64373Z" stroke="#808080"/>
</svg>