<svg xmlns="http://www.w3.org/2000/svg" width="40" height="40" viewBox="0 0 40 40" fill="none">
<path d="M40 10C40 4.47715 35.5228 0 30 0H10C4.47715 0 0 4.47715 0 10V30C0 35.5228 4.47715 40 10 40H30C35.5228 40 40 35.5228 40 30V10Z" fill="#EE3424"/>
<mask id="mask0_16_34766" style="mask-type:alpha" maskUnits="userSpaceOnUse" x="8" y="11" width="24" height="18">
<g clip-path="url(#clip0_16_34766)">
<g clip-path="url(#clip1_16_34766)">
<path d="M27.8716 17.3288C28.75 17.8919 29.6059 18.2523 30.2365 18.4775C30.5518 18.5901 30.8221 18.6577 30.9797 18.7027C31.0698 18.7252 31.1374 18.7477 31.1824 18.7477C31.1824 18.7477 31.1824 18.7477 31.205 18.7477H31.25C31.25 18.7477 31.25 18.7477 31.25 18.7928L31.2275 20.3694H31.0923C31.0473 20.3694 31.0023 20.3919 30.9347 20.3919C30.7545 20.4144 30.4842 20.482 30.1689 20.5721C29.5158 20.7523 28.6374 21.045 27.7365 21.5631C25.9347 22.5766 23.9977 24.3559 23.4122 27.6216L21.8131 27.3288C22.4887 23.6802 24.5833 21.5631 26.6104 20.3468L8.77252 20.1892L8.79505 18.5676L27.0608 18.7252C27.0383 18.7252 27.0383 18.7027 27.0158 18.7027C24.9887 17.3739 22.8266 15.0766 22.3761 11.1802L23.9752 11C24.3581 14.2883 26.1599 16.2027 27.8716 17.3288Z" fill="black"/>
</g>
</g>
</mask>
<g mask="url(#mask0_16_34766)">
<rect width="22.5" height="18" transform="matrix(-1 0 0 1 31.25 11)" fill="white"/>
</g>
<defs>
<clipPath id="clip0_16_34766">
<rect width="22.5" height="18" fill="white" transform="matrix(-1 0 0 1 31.25 11)"/>
</clipPath>
<clipPath id="clip1_16_34766">
<rect width="22.5" height="16.6216" fill="white" transform="matrix(-1 0 0 1 31.25 11)"/>
</clipPath>
</defs>
</svg>