<svg xmlns="http://www.w3.org/2000/svg" width="40" height="40" viewBox="0 0 40 40" fill="none">
<path d="M0 10C0 4.47715 4.47715 0 10 0H30C35.5228 0 40 4.47715 40 10V30C40 35.5228 35.5228 40 30 40H10C4.47715 40 0 35.5228 0 30V10Z" fill="#EE3424"/>
<mask id="mask0_16_34481" style="mask-type:alpha" maskUnits="userSpaceOnUse" x="8" y="11" width="24" height="18">
<g clip-path="url(#clip0_16_34481)">
<g clip-path="url(#clip1_16_34481)">
<path d="M12.1284 17.3288C11.25 17.8919 10.3941 18.2523 9.76351 18.4775C9.4482 18.5901 9.17793 18.6577 9.02027 18.7027C8.93018 18.7252 8.86261 18.7477 8.81757 18.7477C8.81757 18.7477 8.81757 18.7477 8.79505 18.7477H8.75C8.75 18.7477 8.75 18.7477 8.75 18.7928L8.77252 20.3694H8.90766C8.9527 20.3694 8.99775 20.3919 9.06532 20.3919C9.2455 20.4144 9.51577 20.482 9.83108 20.5721C10.4842 20.7523 11.3626 21.045 12.2635 21.5631C14.0653 22.5766 16.0023 24.3559 16.5878 27.6216L18.1869 27.3288C17.5113 23.6802 15.4167 21.5631 13.3896 20.3468L31.2275 20.1892L31.205 18.5676L12.9392 18.7252C12.9617 18.7252 12.9617 18.7027 12.9842 18.7027C15.0113 17.3739 17.1734 15.0766 17.6239 11.1802L16.0248 11C15.6419 14.2883 13.8401 16.2027 12.1284 17.3288Z" fill="black"/>
</g>
</g>
</mask>
<g mask="url(#mask0_16_34481)">
<rect x="8.75" y="11" width="22.5" height="18" fill="white"/>
</g>
<defs>
<clipPath id="clip0_16_34481">
<rect width="22.5" height="18" fill="white" transform="translate(8.75 11)"/>
</clipPath>
<clipPath id="clip1_16_34481">
<rect width="22.5" height="16.6216" fill="white" transform="translate(8.75 11)"/>
</clipPath>
</defs>
</svg>